# xmcd
#
# Track frame offsets: 
#        150
#        12009
#        24669
#        38553
#        51418
#        61582
#        72751
#        86251
#        98731
#        111461
#        120827
#        136329
#        149703
#        164565
#
# Disc length: 2365 seconds
#
# Revision: 0
# Processed by: cddbd v1.5.2PL0 Copyright (c) Steve Scherf et al.
# Submitted via: ExactAudioCopyFreeDBPlugin 1.0
#
DISCID=b6093b0e
DTITLE=B.B. King - Anthology - Dejavu Definitive Gold [Disc 2]
DYEAR=2010
DGENRE=General Electric Blues
TTITLE0=Hard Working Woman
TTITLE1=I Gotta Find My Baby
TTITLE2=I Want To Get Married
TTITLE3=I Wonder
TTITLE4=Jump With You Baby
TTITLE5=Let's Do The Boogie
TTITLE6=Lonely And Blue
TTITLE7=Miss Martha King
TTITLE8=Mistreated Woman
TTITLE9=My Baby's Gone
TTITLE10=My Own Fault Darling
TTITLE11=On My Word Of Honor
TTITLE12=Past Day
TTITLE13=Please Love Me
EXTD=
EXTT0=
EXTT1=
EXTT2=
EXTT3=
EXTT4=
EXTT5=
EXTT6=
EXTT7=
EXTT8=
EXTT9=
EXTT10=
EXTT11=
EXTT12=
EXTT13=
PLAYORDER=
